# xmcd CD database file
#
# Track frame offsets:
#	150
#	27710
#	52419
#	77191
#	91269
#	107678
#	122316
#	136292
#	149822
#	165946
#	177758
#	199165
#	208220
#	232950
#	243190
#	256325
#	269475
#	282458
#	292931
#	306311
#	317831
#	330626
#	345464
#
# Disc length: 4760 seconds
#
# Revision: 0
# Processed by: cddbd v1.5.2PL0 Copyright (c) Steve Scherf et al.
# Submitted via: CDex 1.77
#
DISCID=5e129617
DTITLE=Musica Jazz (Magazine) - Joe Williams - Count Basie - Every Day
DYEAR=2018
DGENRE=Jazz
TTITLE0=Night time is the right time (when the sun goes down)
TTITLE1=Every day I have the blues
TTITLE2=The comeback
TTITLE3=Alright, O.K. you win
TTITLE4=In the evening
TTITLE5=Roll 'em Pete
TTITLE6=Teach me tonight
TTITLE7=My baby upset me
TTITLE8=Please send me someone to love
TTITLE9=Stop! Don't!
TTITLE10=Every day I have the blues
TTITLE11=Baby, won't you please come home
TTITLE12=It's a low down dirty shame
TTITLE13=Shake, rattle and roll
TTITLE14=Just a dream
TTITLE15=Cherry red
TTITLE16=Good mornin' blues
TTITLE17=What did you win
TTITLE18=Ain't no use
TTITLE19=Gee baby, ain't I good to you
TTITLE20=Confessin' the blues
TTITLE21=Five o'clock in the morning
TTITLE22=How can you lose
EXTD=YEAR: 2018
EXTT0=
EXTT1=
EXTT2=
EXTT3=
EXTT4=
EXTT5=
EXTT6=
EXTT7=
EXTT8=
EXTT9=
EXTT10=
EXTT11=
EXTT12=
EXTT13=
EXTT14=
EXTT15=
EXTT16=
EXTT17=
EXTT18=
EXTT19=
EXTT20=
EXTT21=
EXTT22=
PLAYORDER=
